<svg width="711" height="437" viewBox="0 0 711 437" fill="none" xmlns="http://www.w3.org/2000/svg">
<g clip-path="url(#clip0_23_15592)">
<rect x="0.209961" width="710.098" height="436.818" rx="24.961" fill="white"/>
<g clip-path="url(#clip1_23_15592)">
<path fill-rule="evenodd" clip-rule="evenodd" d="M-160.864 -66.6992H871.382V527.889H-160.864V-66.6992Z" fill="#293F64"/>
<path fill-rule="evenodd" clip-rule="evenodd" d="M399.137 196.28C407.978 217.631 397.838 242.103 376.496 250.943C355.145 259.784 330.672 249.644 321.832 228.302C312.992 206.951 323.131 182.478 344.473 173.638C365.825 164.798 390.297 174.937 399.137 196.28Z" fill="#FD4741"/>
<path fill-rule="evenodd" clip-rule="evenodd" d="M270.185 154.467C265.765 165.138 253.524 170.212 242.853 165.792C232.182 161.371 227.108 149.131 231.528 138.46C235.948 127.788 248.189 122.714 258.86 127.135C269.531 131.555 274.605 143.795 270.185 154.467Z" fill="#2679FF"/>
<path fill-rule="evenodd" clip-rule="evenodd" d="M379.818 331.57C384.238 342.242 379.173 354.482 368.493 358.902C357.813 363.322 345.581 358.257 341.161 347.577C336.741 336.906 341.806 324.665 352.486 320.245C363.157 315.825 375.398 320.89 379.818 331.57Z" fill="#2679FF"/>
<path fill-rule="evenodd" clip-rule="evenodd" d="M462.118 165.792C451.447 161.371 446.373 149.131 450.793 138.46C455.213 127.788 467.453 122.714 478.125 127.135C488.796 131.555 493.87 143.795 489.45 154.467C485.03 165.138 472.789 170.212 462.118 165.792Z" fill="#2679FF"/>
<path d="M210.229 54.0751C210.229 53.4735 210.02 53.0114 209.593 52.6889C209.165 52.3663 208.398 52.0263 207.291 51.6688C206.184 51.3114 205.312 50.9539 204.658 50.6139C202.897 49.6636 202.016 48.382 202.016 46.7691C202.016 45.9322 202.252 45.1824 202.723 44.5285C203.193 43.8746 203.873 43.3602 204.754 42.9941C205.635 42.6279 206.628 42.4448 207.727 42.4448C208.825 42.4448 209.819 42.6453 210.682 43.0464C211.546 43.4474 212.217 44.0141 212.696 44.7465C213.176 45.4788 213.411 46.307 213.411 47.2399H210.22C210.22 46.5337 209.994 45.9757 209.549 45.5834C209.104 45.1911 208.477 44.9906 207.666 44.9906C206.855 44.9906 206.28 45.1562 205.844 45.4875C205.408 45.8188 205.199 46.2547 205.199 46.7953C205.199 47.3009 205.451 47.7194 205.957 48.0594C206.463 48.3994 207.213 48.722 208.198 49.0185C210.011 49.5677 211.336 50.239 212.165 51.0498C212.993 51.8606 213.411 52.8632 213.411 54.0751C213.411 55.4177 212.906 56.4726 211.886 57.2311C210.874 57.9983 209.505 58.3732 207.788 58.3732C206.594 58.3732 205.512 58.1553 204.527 57.7193C203.551 57.2834 202.801 56.6819 202.287 55.9234C201.772 55.1649 201.511 54.2843 201.511 53.2817H204.71C204.71 54.9905 205.73 55.8449 207.779 55.8449C208.538 55.8449 209.131 55.688 209.558 55.3828C209.985 55.0777 210.194 54.6418 210.194 54.0925L210.229 54.0751Z" fill="#4F92FF"/>
<path d="M219.079 43.7964V46.6298H221.049V48.8879H219.079V54.6333C219.079 55.0605 219.157 55.3656 219.323 55.5487C219.488 55.7318 219.793 55.8277 220.256 55.8277C220.596 55.8277 220.901 55.8015 221.162 55.7579V58.0857C220.561 58.2688 219.942 58.3647 219.297 58.3647C217.143 58.3647 216.036 57.2749 216.001 55.0954V48.8879H214.318V46.6298H216.001V43.7964H219.079Z" fill="#4F92FF"/>
<path d="M229.227 49.5072C228.809 49.4549 228.442 49.42 228.12 49.42C226.96 49.42 226.193 49.8124 225.835 50.6058V58.1387H222.758V46.6214H225.661L225.748 47.9989C226.367 46.9439 227.222 46.4121 228.312 46.4121C228.652 46.4121 228.974 46.4557 229.271 46.5516L229.227 49.5072Z" fill="#4F92FF"/>
<path d="M237.065 58.1383C236.926 57.8593 236.821 57.5193 236.76 57.1095C236.019 57.9378 235.043 58.3563 233.857 58.3563C232.732 58.3563 231.791 58.0337 231.05 57.3798C230.308 56.7259 229.934 55.9064 229.934 54.9124C229.934 53.6918 230.387 52.7589 231.294 52.105C232.2 51.4511 233.508 51.1198 235.217 51.1198H236.629V50.4572C236.629 49.9254 236.49 49.4982 236.22 49.1843C235.949 48.8617 235.514 48.7048 234.929 48.7048C234.415 48.7048 234.005 48.8268 233.709 49.0797C233.412 49.3238 233.264 49.6638 233.264 50.0997H230.186C230.186 49.4284 230.396 48.8181 230.805 48.2514C231.215 47.6847 231.799 47.24 232.549 46.9174C233.299 46.5949 234.145 46.4292 235.086 46.4292C236.507 46.4292 237.632 46.7867 238.469 47.5016C239.306 48.2165 239.716 49.2192 239.716 50.5095V55.5053C239.716 56.5951 239.873 57.4234 240.169 57.9814V58.1645H237.065V58.1383ZM234.52 56.0023C234.973 56.0023 235.391 55.8976 235.775 55.6971C236.159 55.4966 236.438 55.2263 236.629 54.8863V52.9071H235.479C233.935 52.9071 233.116 53.439 233.02 54.5027V54.6857C233.011 55.0694 233.142 55.3832 233.412 55.6361C233.683 55.8889 234.049 56.011 234.52 56.011V56.0023Z" fill="#4F92FF"/>
<path d="M245.757 43.7964V46.6298H247.728V48.8879H245.757V54.6333C245.757 55.0605 245.836 55.3656 246.001 55.5487C246.167 55.7318 246.472 55.8277 246.934 55.8277C247.274 55.8277 247.579 55.8015 247.841 55.7579V58.0857C247.239 58.2688 246.62 58.3647 245.975 58.3647C243.822 58.3647 242.715 57.2749 242.68 55.0954V48.8879H240.997V46.6298H242.68V43.7964H245.757Z" fill="#4F92FF"/>
<path d="M254.737 58.3478C253.046 58.3478 251.677 57.8334 250.613 56.7959C249.549 55.7584 249.018 54.3809 249.018 52.6546V52.3581C249.018 51.1986 249.244 50.1698 249.689 49.2543C250.134 48.3389 250.77 47.6414 251.59 47.1444C252.409 46.6474 253.342 46.4033 254.397 46.4033C255.975 46.4033 257.213 46.9003 258.12 47.8942C259.027 48.8881 259.48 50.2918 259.48 52.1227V53.3782H252.148C252.243 54.128 252.549 54.7296 253.046 55.1917C253.543 55.6451 254.179 55.8718 254.946 55.8718C256.132 55.8718 257.056 55.4445 257.727 54.5814L259.236 56.2728C258.774 56.9267 258.146 57.4324 257.361 57.7986C256.577 58.1648 255.705 58.3478 254.746 58.3478H254.737ZM254.388 48.8881C253.778 48.8881 253.281 49.0974 252.906 49.5072C252.522 49.9169 252.287 50.5098 252.174 51.2858H256.455V51.0416C256.437 50.3616 256.254 49.8297 255.905 49.4548C255.548 49.0799 255.051 48.8968 254.397 48.8968L254.388 48.8881Z" fill="#4F92FF"/>
<path d="M260.77 52.2969C260.77 50.5271 261.188 49.106 262.034 48.0249C262.871 46.9439 264.004 46.4033 265.434 46.4033C266.698 46.4033 267.683 46.8392 268.381 47.7024L268.511 46.6126H271.301V57.7459C271.301 58.7572 271.075 59.629 270.613 60.3788C270.15 61.1199 269.514 61.6866 268.677 62.0789C267.849 62.4712 266.872 62.663 265.765 62.663C264.919 62.663 264.1 62.4974 263.298 62.1574C262.496 61.8173 261.885 61.3901 261.476 60.8496L262.836 58.9752C263.603 59.8296 264.527 60.2655 265.626 60.2655C266.445 60.2655 267.073 60.0475 267.535 59.6116C267.988 59.1757 268.215 58.5567 268.215 57.7546V57.1356C267.509 57.9377 266.576 58.3387 265.416 58.3387C264.03 58.3387 262.914 57.7982 262.06 56.7171C261.205 55.636 260.778 54.1975 260.778 52.4103V52.2795L260.77 52.2969ZM263.847 52.5236C263.847 53.5698 264.056 54.3893 264.475 54.9822C264.893 55.575 265.469 55.8714 266.201 55.8714C267.134 55.8714 267.805 55.5227 268.215 54.8165V49.9691C267.805 49.2629 267.143 48.9142 266.227 48.9142C265.486 48.9142 264.911 49.2193 264.484 49.8209C264.065 50.4225 263.847 51.3292 263.847 52.5236Z" fill="#4F92FF"/>
<path d="M273.638 43.6395C273.638 43.1774 273.795 42.8025 274.1 42.4974C274.405 42.2009 274.832 42.0527 275.364 42.0527C275.896 42.0527 276.305 42.2009 276.619 42.4974C276.933 42.7938 277.09 43.1774 277.09 43.6395C277.09 44.1015 276.933 44.4939 276.619 44.7903C276.305 45.0867 275.887 45.2349 275.373 45.2349C274.858 45.2349 274.44 45.0867 274.126 44.7903C273.812 44.4939 273.655 44.1103 273.655 43.6395H273.638ZM276.907 58.1381H273.821V46.6211H276.907V58.1381Z" fill="#4F92FF"/>
<path d="M284.736 58.3478C283.045 58.3478 281.676 57.8334 280.612 56.7959C279.548 55.7584 279.017 54.3809 279.017 52.6546V52.3581C279.017 51.1986 279.243 50.1698 279.688 49.2543C280.133 48.3389 280.769 47.6414 281.589 47.1444C282.408 46.6474 283.341 46.4033 284.396 46.4033C285.974 46.4033 287.212 46.9003 288.119 47.8942C289.026 48.8881 289.479 50.2918 289.479 52.1227V53.3782H282.147C282.243 54.128 282.548 54.7296 283.045 55.1917C283.542 55.6451 284.178 55.8718 284.945 55.8718C286.131 55.8718 287.055 55.4445 287.727 54.5814L289.235 56.2728C288.773 56.9267 288.145 57.4324 287.36 57.7986C286.576 58.1648 285.704 58.3478 284.745 58.3478H284.736ZM284.387 48.8881C283.777 48.8881 283.28 49.0974 282.905 49.5072C282.522 49.9169 282.286 50.5098 282.173 51.2858H286.454V51.0416C286.436 50.3616 286.253 49.8297 285.904 49.4548C285.547 49.0799 285.05 48.8968 284.396 48.8968L284.387 48.8881Z" fill="#4F92FF"/>
<path d="M297.456 54.9563C297.456 54.5814 297.273 54.285 296.898 54.067C296.523 53.849 295.93 53.6572 295.102 53.4828C292.364 52.9074 290.995 51.7478 290.995 49.9954C290.995 48.9753 291.422 48.1209 292.268 47.4321C293.114 46.7433 294.221 46.4033 295.59 46.4033C297.055 46.4033 298.223 46.7433 299.095 47.4321C299.967 48.1209 300.411 49.0102 300.411 50.1175H297.334C297.334 49.6815 297.194 49.3153 296.906 49.0276C296.619 48.7399 296.183 48.6004 295.572 48.6004C295.058 48.6004 294.657 48.7138 294.369 48.9492C294.081 49.1846 293.942 49.481 293.942 49.8472C293.942 50.1872 294.108 50.4662 294.43 50.6754C294.753 50.8847 295.293 51.0678 296.061 51.216C296.828 51.3642 297.473 51.5386 297.996 51.7304C299.618 52.3233 300.437 53.3608 300.437 54.8255C300.437 55.8805 299.984 56.7262 299.086 57.3714C298.188 58.0253 297.02 58.3478 295.599 58.3478C294.631 58.3478 293.776 58.1735 293.027 57.8334C292.277 57.4934 291.693 57.0139 291.265 56.421C290.838 55.8194 290.629 55.1743 290.629 54.4768H293.541C293.567 55.026 293.768 55.4445 294.151 55.7323C294.526 56.02 295.032 56.1682 295.66 56.1682C296.252 56.1682 296.697 56.0548 296.993 55.8369C297.299 55.6102 297.447 55.3225 297.447 54.9563H297.456Z" fill="#4F92FF"/>
<path d="M308.694 58.138V48.8791H306.977V46.6211H308.694V45.6446C308.694 44.3543 309.069 43.3517 309.81 42.6368C310.551 41.9219 311.589 41.5645 312.922 41.5645C313.35 41.5645 313.873 41.6342 314.483 41.7737L314.448 44.1538C314.195 44.0928 313.881 44.0579 313.515 44.0579C312.356 44.0579 311.78 44.5984 311.78 45.6882V46.6124H314.065V48.8704H311.78V58.1293H308.694V58.138Z" fill="#4F92FF"/>
<path d="M315.189 52.271C315.189 51.1289 315.407 50.1088 315.852 49.2195C316.288 48.3215 316.924 47.6327 317.753 47.1445C318.581 46.6562 319.54 46.4121 320.63 46.4121C322.182 46.4121 323.455 46.8829 324.431 47.842C325.416 48.7923 325.966 50.0827 326.079 51.713L326.096 52.4977C326.096 54.2676 325.6 55.68 324.614 56.7524C323.629 57.8161 322.304 58.3566 320.647 58.3566C318.991 58.3566 317.666 57.8248 316.672 56.7611C315.678 55.6975 315.189 54.2502 315.189 52.4192V52.2798V52.271ZM318.267 52.489C318.267 53.5788 318.476 54.4158 318.886 55C319.296 55.5754 319.889 55.8718 320.656 55.8718C321.423 55.8718 321.981 55.5841 322.4 55.0174C322.818 54.442 323.028 53.5265 323.028 52.271C323.028 51.1986 322.818 50.3704 322.4 49.7775C321.981 49.1846 321.388 48.8969 320.63 48.8969C319.871 48.8969 319.296 49.1934 318.886 49.7775C318.476 50.3617 318.267 51.2684 318.267 52.4977V52.489Z" fill="#4F92FF"/>
<path d="M334.465 49.5072C334.047 49.4549 333.681 49.42 333.358 49.42C332.198 49.42 331.431 49.8124 331.074 50.6058V58.1387H327.996V46.6214H330.899L330.987 47.9989C331.606 46.9439 332.46 46.4121 333.55 46.4121C333.89 46.4121 334.213 46.4557 334.509 46.5516L334.465 49.5072Z" fill="#4F92FF"/>
<path d="M345.747 42.6454L349.731 53.8834L353.689 42.6454H357.882V58.1379H354.683V53.9008L355.005 46.5861L350.821 58.1292H348.632L344.456 46.5948L344.779 53.8921V58.1292H341.588V42.6367H345.764L345.747 42.6454Z" fill="#4F92FF"/>
<path d="M365.764 58.3478C364.073 58.3478 362.704 57.8334 361.64 56.7959C360.577 55.7584 360.045 54.3809 360.045 52.6546V52.3581C360.045 51.1986 360.272 50.1698 360.716 49.2543C361.161 48.3389 361.797 47.6414 362.617 47.1444C363.436 46.6474 364.369 46.4033 365.424 46.4033C367.002 46.4033 368.24 46.9003 369.147 47.8942C370.054 48.8881 370.507 50.2918 370.507 52.1227V53.3782H363.175C363.271 54.128 363.576 54.7296 364.073 55.1917C364.57 55.6451 365.206 55.8718 365.974 55.8718C367.159 55.8718 368.083 55.4445 368.755 54.5814L370.263 56.2728C369.801 56.9267 369.173 57.4324 368.389 57.7986C367.604 58.1648 366.732 58.3478 365.773 58.3478H365.764ZM365.407 48.8881C364.797 48.8881 364.3 49.0974 363.925 49.5072C363.55 49.9169 363.306 50.5098 363.192 51.2858H367.473V51.0416C367.456 50.3616 367.273 49.8297 366.924 49.4548C366.566 49.0799 366.07 48.8968 365.416 48.8968L365.407 48.8881Z" fill="#4F92FF"/>
<path d="M375.075 46.6214L375.171 47.9553C375.991 46.9265 377.098 46.4121 378.484 46.4121C379.705 46.4121 380.612 46.7696 381.204 47.4845C381.797 48.1994 382.102 49.2718 382.12 50.7017V58.1387H379.042V50.7714C379.042 50.1175 378.903 49.6467 378.615 49.3503C378.327 49.0539 377.857 48.9056 377.203 48.9056C376.339 48.9056 375.686 49.2718 375.258 50.0129V58.13H372.181V46.6126H375.075V46.6214Z" fill="#4F92FF"/>
<path d="M388.135 43.7964V46.6298H390.106V48.8879H388.135V54.6333C388.135 55.0605 388.214 55.3656 388.379 55.5487C388.545 55.7318 388.85 55.8277 389.312 55.8277C389.652 55.8277 389.957 55.8015 390.219 55.7579V58.0857C389.617 58.2688 388.998 58.3647 388.353 58.3647C386.2 58.3647 385.093 57.2749 385.058 55.0954V48.8879H383.375V46.6298H385.058V43.7964H388.135Z" fill="#4F92FF"/>
<path d="M398.483 58.1383C398.344 57.8593 398.239 57.5193 398.178 57.1095C397.437 57.9378 396.461 58.3563 395.275 58.3563C394.15 58.3563 393.209 58.0337 392.468 57.3798C391.726 56.7259 391.352 55.9064 391.352 54.9124C391.352 53.6918 391.805 52.7589 392.712 52.105C393.618 51.4511 394.926 51.1198 396.635 51.1198H398.047V50.4572C398.047 49.9254 397.908 49.4982 397.638 49.1843C397.367 48.8617 396.931 48.7048 396.347 48.7048C395.833 48.7048 395.423 48.8268 395.127 49.0797C394.83 49.3238 394.682 49.6638 394.682 50.0997H391.604C391.604 49.4284 391.814 48.8181 392.223 48.2514C392.633 47.6847 393.217 47.24 393.967 46.9174C394.717 46.5949 395.563 46.4292 396.504 46.4292C397.925 46.4292 399.05 46.7867 399.887 47.5016C400.724 48.2165 401.134 49.2192 401.134 50.5095V55.5053C401.134 56.5951 401.291 57.4234 401.587 57.9814V58.1645H398.483V58.1383ZM395.946 56.0023C396.4 56.0023 396.818 55.8976 397.202 55.6971C397.585 55.4966 397.864 55.2263 398.056 54.8863V52.9071H396.905C395.362 52.9071 394.543 53.439 394.447 54.5027V54.6857C394.438 55.0694 394.569 55.3832 394.839 55.6361C395.109 55.8889 395.475 56.011 395.946 56.011V56.0023Z" fill="#4F92FF"/>
<path d="M406.748 58.1379H403.662V41.791H406.748V58.1379Z" fill="#4F92FF"/>
<path d="M426.974 53.6654L429.058 42.6367H432.24L428.805 58.1292H425.588L423.068 47.7631L420.549 58.1292H417.332L413.896 42.6367H417.079L419.171 53.6393L421.726 42.6367H424.428L426.974 53.6654Z" fill="#4F92FF"/>
<path d="M438.736 58.3478C437.045 58.3478 435.676 57.8334 434.612 56.7959C433.548 55.7584 433.017 54.3809 433.017 52.6546V52.3581C433.017 51.1986 433.243 50.1698 433.688 49.2543C434.133 48.3389 434.769 47.6414 435.589 47.1444C436.408 46.6474 437.341 46.4033 438.396 46.4033C439.974 46.4033 441.212 46.9003 442.119 47.8942C443.026 48.8881 443.479 50.2918 443.479 52.1227V53.3782H436.147C436.243 54.128 436.548 54.7296 437.045 55.1917C437.542 55.6451 438.178 55.8718 438.945 55.8718C440.131 55.8718 441.055 55.4445 441.727 54.5814L443.235 56.2728C442.773 56.9267 442.145 57.4324 441.36 57.7986C440.576 58.1648 439.704 58.3478 438.745 58.3478H438.736ZM438.387 48.8881C437.777 48.8881 437.28 49.0974 436.905 49.5072C436.522 49.9169 436.286 50.5098 436.173 51.2858H440.454V51.0416C440.436 50.3616 440.253 49.8297 439.904 49.4548C439.547 49.0799 439.041 48.8968 438.396 48.8968L438.387 48.8881Z" fill="#4F92FF"/>
<path d="M448.465 58.1379H445.379V41.791H448.465V58.1379Z" fill="#4F92FF"/>
<path d="M454.245 58.1379H451.159V41.791H454.245V58.1379Z" fill="#4F92FF"/>
<path d="M462.756 52.741H456.767V50.2651H462.756V52.741Z" fill="#4F92FF"/>
<path d="M465.431 58.138V42.6455H470.862C472.745 42.6455 474.166 43.003 475.143 43.7266C476.119 44.4502 476.599 45.5051 476.599 46.8913C476.599 47.6498 476.407 48.3211 476.015 48.8966C475.622 49.472 475.082 49.8992 474.384 50.1694C475.178 50.37 475.805 50.771 476.259 51.3726C476.712 51.9741 476.948 52.7152 476.948 53.587C476.948 55.0779 476.477 56.2025 475.518 56.9697C474.559 57.737 473.216 58.1293 471.455 58.138H465.431ZM468.622 49.132H470.984C472.597 49.1058 473.399 48.4606 473.399 47.2052C473.399 46.5077 473.199 46.0021 472.789 45.6882C472.379 45.3831 471.734 45.2261 470.853 45.2261H468.622V49.132ZM468.622 51.39V55.5748H471.359C472.109 55.5748 472.702 55.3917 473.12 55.0343C473.539 54.6768 473.757 54.1799 473.757 53.5522C473.757 52.1311 473.024 51.4162 471.551 51.39H468.622Z" fill="#4F92FF"/>
<path d="M484.436 58.3478C482.745 58.3478 481.376 57.8334 480.312 56.7959C479.249 55.7584 478.717 54.3809 478.717 52.6546V52.3581C478.717 51.1986 478.943 50.1698 479.388 49.2543C479.833 48.3389 480.469 47.6414 481.289 47.1444C482.108 46.6474 483.041 46.4033 484.096 46.4033C485.674 46.4033 486.912 46.9003 487.819 47.8942C488.726 48.8881 489.179 50.2918 489.179 52.1227V53.3782H481.847C481.943 54.128 482.248 54.7296 482.745 55.1917C483.242 55.6451 483.878 55.8718 484.645 55.8718C485.831 55.8718 486.755 55.4445 487.427 54.5814L488.935 56.2728C488.473 56.9267 487.845 57.4324 487.061 57.7986C486.276 58.1648 485.404 58.3478 484.445 58.3478H484.436ZM484.079 48.8881C483.468 48.8881 482.972 49.0974 482.597 49.5072C482.213 49.9169 481.978 50.5098 481.864 51.2858H486.145V51.0416C486.128 50.3616 485.945 49.8297 485.596 49.4548C485.238 49.0799 484.733 48.8968 484.088 48.8968L484.079 48.8881Z" fill="#4F92FF"/>
<path d="M490.896 43.6395C490.896 43.1774 491.053 42.8025 491.359 42.4974C491.664 42.2009 492.091 42.0527 492.623 42.0527C493.155 42.0527 493.564 42.2009 493.878 42.4974C494.192 42.7938 494.349 43.1774 494.349 43.6395C494.349 44.1015 494.192 44.4939 493.878 44.7903C493.564 45.0867 493.146 45.2349 492.631 45.2349C492.117 45.2349 491.699 45.0867 491.385 44.7903C491.071 44.4939 490.914 44.1103 490.914 43.6395H490.896ZM494.157 58.1381H491.071V46.6211H494.157V58.1381Z" fill="#4F92FF"/>
<path d="M499.529 46.6209L499.625 47.9548C500.445 46.926 501.552 46.4116 502.938 46.4116C504.159 46.4116 505.066 46.7691 505.659 47.484C506.251 48.1989 506.557 49.2713 506.574 50.7012V58.1382H503.496V50.7709C503.496 50.117 503.357 49.6462 503.069 49.3498C502.781 49.0534 502.311 48.9052 501.657 48.9052C500.794 48.9052 500.14 49.2713 499.712 50.0124V58.1295H496.635V46.6122H499.529V46.6209Z" fill="#4F92FF"/>
<path d="M508.456 52.2969C508.456 50.5271 508.875 49.106 509.72 48.0249C510.557 46.9439 511.691 46.4033 513.12 46.4033C514.385 46.4033 515.37 46.8392 516.067 47.7024L516.198 46.6126H518.988V57.7459C518.988 58.7572 518.761 59.629 518.299 60.3788C517.837 61.1199 517.201 61.6866 516.364 62.0789C515.535 62.4712 514.559 62.663 513.452 62.663C512.606 62.663 511.786 62.4974 510.984 62.1574C510.182 61.8173 509.572 61.3901 509.162 60.8496L510.522 58.9752C511.29 59.8296 512.214 60.2655 513.312 60.2655C514.132 60.2655 514.759 60.0475 515.213 59.6116C515.666 59.1757 515.893 58.5567 515.893 57.7546V57.1356C515.187 57.9377 514.254 58.3387 513.094 58.3387C511.708 58.3387 510.592 57.7982 509.738 56.7171C508.883 55.636 508.456 54.1975 508.456 52.4103V52.2795V52.2969ZM511.534 52.5236C511.534 53.5698 511.743 54.3893 512.161 54.9822C512.58 55.575 513.155 55.8714 513.888 55.8714C514.82 55.8714 515.492 55.5227 515.902 54.8165V49.9691C515.492 49.2629 514.829 48.9142 513.914 48.9142C513.173 48.9142 512.597 49.2193 512.17 49.8209C511.752 50.4225 511.534 51.3292 511.534 52.5236Z" fill="#4F92FF"/>
<path d="M506.163 124.441C504.759 124.04 503.739 123.543 503.102 122.958C502.466 122.374 502.143 121.642 502.143 120.779C502.143 119.802 502.536 118.991 503.312 118.355C504.088 117.719 505.108 117.396 506.354 117.396C507.209 117.396 507.967 117.562 508.63 117.893C509.293 118.224 509.816 118.678 510.182 119.253C510.548 119.828 510.731 120.465 510.731 121.154H509.092C509.092 120.404 508.857 119.811 508.377 119.384C507.898 118.957 507.226 118.739 506.363 118.739C505.561 118.739 504.925 118.913 504.48 119.27C504.026 119.628 503.8 120.116 503.8 120.753C503.8 121.258 504.018 121.686 504.445 122.034C504.872 122.383 505.605 122.706 506.633 122.993C507.662 123.281 508.473 123.604 509.048 123.952C509.624 124.301 510.06 124.711 510.339 125.173C510.618 125.635 510.757 126.184 510.757 126.812C510.757 127.815 510.365 128.626 509.58 129.227C508.796 129.829 507.749 130.134 506.442 130.134C505.587 130.134 504.794 129.968 504.061 129.646C503.329 129.323 502.754 128.87 502.353 128.303C501.951 127.736 501.751 127.091 501.751 126.367H503.39C503.39 127.117 503.669 127.71 504.218 128.146C504.768 128.582 505.509 128.8 506.433 128.8C507.296 128.8 507.959 128.626 508.421 128.268C508.883 127.911 509.109 127.44 509.109 126.83C509.109 126.219 508.9 125.748 508.473 125.417C508.046 125.086 507.279 124.755 506.154 124.432L506.163 124.441Z" fill="#4F92FF"/>
<path d="M516.433 130.142C515.186 130.142 514.166 129.732 513.381 128.913C512.596 128.093 512.204 126.995 512.204 125.626V125.338C512.204 124.423 512.378 123.612 512.727 122.888C513.076 122.165 513.564 121.607 514.192 121.206C514.82 120.804 515.5 120.595 516.232 120.595C517.427 120.595 518.359 120.988 519.022 121.781C519.685 122.574 520.016 123.699 520.016 125.172V125.826H513.773C513.8 126.733 514.061 127.466 514.567 128.023C515.072 128.581 515.718 128.86 516.502 128.86C517.06 128.86 517.531 128.747 517.915 128.52C518.298 128.294 518.638 127.989 518.926 127.614L519.885 128.364C519.118 129.549 517.958 130.142 516.415 130.142H516.433ZM516.232 121.877C515.596 121.877 515.064 122.112 514.628 122.574C514.192 123.036 513.93 123.682 513.826 124.519H518.438V124.397C518.394 123.594 518.176 122.975 517.793 122.539C517.409 122.104 516.886 121.877 516.223 121.877H516.232Z" fill="#4F92FF"/>
<path d="M525.666 130.142C524.419 130.142 523.399 129.732 522.615 128.913C521.83 128.093 521.438 126.995 521.438 125.626V125.338C521.438 124.423 521.612 123.612 521.961 122.888C522.309 122.165 522.798 121.607 523.425 121.206C524.053 120.804 524.733 120.595 525.466 120.595C526.66 120.595 527.593 120.988 528.255 121.781C528.918 122.574 529.249 123.699 529.249 125.172V125.826H523.007C523.033 126.733 523.295 127.466 523.8 128.023C524.306 128.581 524.951 128.86 525.736 128.86C526.294 128.86 526.765 128.747 527.148 128.52C527.532 128.294 527.872 127.989 528.16 127.614L529.119 128.364C528.351 129.549 527.192 130.142 525.649 130.142H525.666ZM525.474 121.877C524.838 121.877 524.306 122.112 523.87 122.574C523.434 123.036 523.173 123.682 523.068 124.519H527.68V124.397C527.636 123.594 527.419 122.975 527.035 122.539C526.651 122.104 526.128 121.877 525.466 121.877H525.474Z" fill="#4F92FF"/>
<path d="M533.651 125.704L532.666 126.733V129.968H531.088V116.89H532.666V124.798L533.512 123.786L536.38 120.752H538.298L534.715 124.597L538.716 129.959H536.868L533.66 125.696L533.651 125.704Z" fill="#4F92FF"/>
<path d="M504.149 146.036V150.892H502.51V138.494H507.078C508.438 138.494 509.502 138.843 510.269 139.532C511.037 140.22 511.42 141.145 511.42 142.278C511.42 143.481 511.045 144.405 510.296 145.059C509.546 145.713 508.465 146.036 507.061 146.036H504.14H504.149ZM504.149 144.702H507.087C507.959 144.702 508.63 144.493 509.092 144.083C509.554 143.673 509.79 143.071 509.79 142.295C509.79 141.554 509.554 140.962 509.092 140.517C508.63 140.072 507.985 139.846 507.174 139.828H504.14V144.702H504.149Z" fill="#4F92FF"/>
<path d="M517.715 143.089C517.48 143.045 517.218 143.028 516.939 143.028C515.902 143.028 515.204 143.464 514.838 144.344V150.883H513.26V141.668H514.794L514.82 142.731C515.335 141.912 516.067 141.493 517.017 141.493C517.323 141.493 517.558 141.537 517.715 141.615V143.08V143.089Z" fill="#4F92FF"/>
<path d="M518.577 146.201C518.577 145.294 518.752 144.483 519.109 143.768C519.466 143.054 519.955 142.496 520.591 142.103C521.228 141.711 521.943 141.519 522.762 141.519C524.018 141.519 525.029 141.955 525.805 142.818C526.581 143.681 526.964 144.841 526.964 146.279V146.393C526.964 147.291 526.79 148.093 526.45 148.808C526.11 149.523 525.613 150.072 524.977 150.473C524.34 150.874 523.608 151.066 522.78 151.066C521.533 151.066 520.521 150.63 519.745 149.767C518.969 148.904 518.586 147.753 518.586 146.314V146.201H518.577ZM520.155 146.384C520.155 147.404 520.391 148.224 520.87 148.843C521.35 149.462 521.977 149.767 522.771 149.767C523.564 149.767 524.209 149.453 524.68 148.825C525.151 148.198 525.386 147.317 525.386 146.192C525.386 145.181 525.142 144.361 524.663 143.734C524.183 143.106 523.547 142.792 522.753 142.792C521.96 142.792 521.35 143.097 520.87 143.716C520.391 144.335 520.155 145.224 520.155 146.375V146.384Z" fill="#4F92FF"/>
<path d="M529.711 150.891V142.897H528.255V141.676H529.711V140.735C529.711 139.749 529.972 138.982 530.504 138.442C531.036 137.901 531.777 137.631 532.745 137.631C533.111 137.631 533.468 137.674 533.826 137.779L533.739 139.052C533.468 139 533.189 138.973 532.884 138.973C532.37 138.973 531.978 139.122 531.699 139.418C531.42 139.715 531.28 140.142 531.28 140.7V141.676H533.25V142.897H531.28V150.891H529.702H529.711Z" fill="#4F92FF"/>
<path d="M538.613 151.066C537.367 151.066 536.346 150.656 535.562 149.837C534.777 149.017 534.385 147.919 534.385 146.55V146.262C534.385 145.347 534.559 144.536 534.908 143.812C535.257 143.088 535.745 142.53 536.373 142.129C537 141.728 537.68 141.519 538.413 141.519C539.607 141.519 540.54 141.911 541.203 142.705C541.865 143.498 542.197 144.623 542.197 146.096V146.75H535.954C535.98 147.657 536.242 148.389 536.747 148.947C537.253 149.505 537.898 149.784 538.683 149.784C539.241 149.784 539.712 149.671 540.095 149.444C540.479 149.218 540.819 148.912 541.107 148.538L542.066 149.287C541.299 150.473 540.139 151.066 538.596 151.066H538.613ZM538.413 142.801C537.776 142.801 537.244 143.036 536.809 143.498C536.373 143.96 536.111 144.605 536.006 145.442H540.619V145.32C540.575 144.518 540.357 143.899 539.973 143.463C539.59 143.027 539.067 142.801 538.404 142.801H538.413Z" fill="#4F92FF"/>
<path d="M549.389 148.451C549.389 148.023 549.232 147.692 548.91 147.457C548.587 147.221 548.029 147.021 547.236 146.846C546.442 146.672 545.806 146.472 545.335 146.236C544.864 146.001 544.524 145.713 544.298 145.382C544.071 145.05 543.957 144.658 543.957 144.205C543.957 143.446 544.28 142.81 544.917 142.287C545.553 141.764 546.373 141.502 547.366 141.502C548.413 141.502 549.258 141.772 549.912 142.313C550.566 142.853 550.889 143.542 550.889 144.379H549.302C549.302 143.943 549.119 143.577 548.753 143.263C548.387 142.949 547.924 142.792 547.366 142.792C546.808 142.792 546.346 142.914 546.024 143.167C545.701 143.42 545.536 143.743 545.536 144.144C545.536 144.527 545.684 144.806 545.989 145.007C546.294 145.207 546.835 145.382 547.619 145.556C548.404 145.73 549.04 145.94 549.529 146.184C550.017 146.428 550.374 146.724 550.619 147.064C550.863 147.404 550.976 147.823 550.976 148.32C550.976 149.139 550.645 149.802 549.991 150.299C549.337 150.796 548.482 151.04 547.427 151.04C546.686 151.04 546.032 150.909 545.466 150.648C544.899 150.386 544.454 150.02 544.132 149.558C543.809 149.096 543.652 148.581 543.652 148.041H545.23C545.257 148.573 545.475 148.991 545.867 149.296C546.259 149.602 546.782 149.759 547.427 149.759C548.02 149.759 548.5 149.636 548.866 149.392C549.232 149.148 549.407 148.826 549.407 148.425L549.389 148.451Z" fill="#4F92FF"/>
<path d="M558.377 148.451C558.377 148.023 558.221 147.692 557.898 147.457C557.575 147.221 557.017 147.021 556.224 146.846C555.431 146.672 554.794 146.472 554.323 146.236C553.853 146.001 553.512 145.713 553.286 145.382C553.059 145.05 552.946 144.658 552.946 144.205C552.946 143.446 553.268 142.81 553.905 142.287C554.541 141.764 555.361 141.502 556.355 141.502C557.401 141.502 558.247 141.772 558.901 142.313C559.554 142.853 559.877 143.542 559.877 144.379H558.29C558.29 143.943 558.107 143.577 557.741 143.263C557.375 142.949 556.913 142.792 556.355 142.792C555.797 142.792 555.335 142.914 555.012 143.167C554.689 143.42 554.524 143.743 554.524 144.144C554.524 144.527 554.672 144.806 554.977 145.007C555.282 145.207 555.823 145.382 556.608 145.556C557.392 145.73 558.029 145.94 558.517 146.184C559.005 146.428 559.363 146.724 559.607 147.064C559.851 147.404 559.964 147.823 559.964 148.32C559.964 149.139 559.633 149.802 558.979 150.299C558.325 150.796 557.471 151.04 556.416 151.04C555.675 151.04 555.021 150.909 554.454 150.648C553.887 150.386 553.443 150.02 553.12 149.558C552.798 149.096 552.641 148.581 552.641 148.041H554.219C554.245 148.573 554.463 148.991 554.855 149.296C555.247 149.602 555.771 149.759 556.416 149.759C557.009 149.759 557.488 149.636 557.854 149.392C558.221 149.148 558.395 148.826 558.395 148.425L558.377 148.451Z" fill="#4F92FF"/>
<path d="M562.012 139.235C562.012 138.982 562.09 138.764 562.247 138.59C562.404 138.415 562.631 138.328 562.945 138.328C563.258 138.328 563.485 138.415 563.642 138.59C563.799 138.764 563.877 138.982 563.877 139.235C563.877 139.488 563.799 139.706 563.642 139.871C563.485 140.037 563.25 140.124 562.945 140.124C562.639 140.124 562.404 140.037 562.247 139.871C562.09 139.706 562.012 139.488 562.012 139.235ZM563.721 150.892H562.142V141.676H563.721V150.892Z" fill="#4F92FF"/>
<path d="M565.823 146.201C565.823 145.294 565.998 144.483 566.355 143.768C566.713 143.054 567.201 142.496 567.837 142.103C568.474 141.711 569.189 141.519 570.008 141.519C571.264 141.519 572.275 141.955 573.051 142.818C573.827 143.681 574.211 144.841 574.211 146.279V146.393C574.211 147.291 574.036 148.093 573.696 148.808C573.356 149.523 572.859 150.072 572.223 150.473C571.586 150.874 570.854 151.066 570.026 151.066C568.779 151.066 567.767 150.63 566.992 149.767C566.216 148.904 565.832 147.753 565.832 146.314V146.201H565.823ZM567.401 146.384C567.401 147.404 567.637 148.224 568.116 148.843C568.596 149.462 569.224 149.767 570.017 149.767C570.81 149.767 571.455 149.453 571.926 148.825C572.397 148.198 572.632 147.317 572.632 146.192C572.632 145.181 572.388 144.361 571.909 143.734C571.429 143.106 570.793 142.792 569.999 142.792C569.206 142.792 568.596 143.097 568.116 143.716C567.637 144.335 567.401 145.224 567.401 146.375V146.384Z" fill="#4F92FF"/>
<path d="M577.672 141.676L577.725 142.835C578.431 141.946 579.346 141.51 580.48 141.51C582.424 141.51 583.409 142.609 583.427 144.806V150.892H581.849V144.797C581.849 144.135 581.692 143.638 581.395 143.324C581.099 143.01 580.637 142.844 580 142.844C579.486 142.844 579.041 142.984 578.658 143.254C578.274 143.524 577.969 143.882 577.751 144.326V150.892H576.173V141.676H577.664H577.672Z" fill="#4F92FF"/>
<path d="M591.49 150.892C591.403 150.708 591.324 150.386 591.272 149.924C590.54 150.682 589.668 151.066 588.648 151.066C587.741 151.066 586.991 150.813 586.416 150.299C585.84 149.784 585.544 149.13 585.544 148.346C585.544 147.387 585.91 146.637 586.634 146.114C587.357 145.591 588.386 145.32 589.711 145.32H591.246V144.597C591.246 144.047 591.08 143.612 590.749 143.28C590.418 142.949 589.938 142.792 589.293 142.792C588.735 142.792 588.255 142.931 587.881 143.219C587.506 143.507 587.314 143.847 587.314 144.248H585.727C585.727 143.786 585.893 143.341 586.215 142.914C586.538 142.487 586.983 142.147 587.54 141.894C588.098 141.641 588.717 141.519 589.38 141.519C590.444 141.519 591.272 141.781 591.874 142.312C592.475 142.844 592.789 143.577 592.807 144.501V148.738C592.807 149.584 592.911 150.255 593.129 150.752V150.892H591.481H591.49ZM588.874 149.688C589.371 149.688 589.834 149.558 590.278 149.305C590.723 149.052 591.045 148.721 591.237 148.311V146.419H589.999C588.072 146.419 587.105 146.986 587.105 148.11C587.105 148.607 587.27 148.991 587.602 149.27C587.933 149.549 588.351 149.688 588.874 149.688Z" fill="#4F92FF"/>
<path d="M596.998 150.891H595.42V137.814H596.998V150.891Z" fill="#4F92FF"/>
<path d="M512.039 171.825H510.4V166.097H504.149V171.825H502.51V159.427H504.149V164.754H510.4V159.427H512.039V171.825Z" fill="#4F92FF"/>
<path d="M518.517 171.999C517.27 171.999 516.25 171.589 515.465 170.769C514.68 169.95 514.288 168.851 514.288 167.482V167.195C514.288 166.279 514.462 165.468 514.811 164.745C515.16 164.021 515.648 163.463 516.276 163.062C516.904 162.661 517.584 162.452 518.316 162.452C519.511 162.452 520.443 162.844 521.106 163.637C521.769 164.431 522.1 165.555 522.1 167.029V167.683H515.857C515.884 168.59 516.145 169.322 516.651 169.88C517.157 170.438 517.802 170.717 518.586 170.717C519.144 170.717 519.615 170.604 519.999 170.377C520.382 170.15 520.722 169.845 521.01 169.47L521.969 170.22C521.202 171.406 520.042 171.999 518.499 171.999H518.517ZM518.325 163.733C517.688 163.733 517.157 163.969 516.721 164.431C516.285 164.893 516.023 165.538 515.919 166.375H520.531V166.253C520.487 165.451 520.269 164.832 519.885 164.396C519.502 163.96 518.979 163.733 518.316 163.733H518.325Z" fill="#4F92FF"/>
<path d="M525.641 171.824H524.062V158.747H525.641V171.824Z" fill="#4F92FF"/>
<path d="M535.945 167.317C535.945 168.721 535.622 169.845 534.986 170.709C534.349 171.572 533.478 171.99 532.379 171.99C531.28 171.99 530.382 171.633 529.737 170.927V175.364H528.159V162.609H529.598L529.676 163.629C530.321 162.836 531.211 162.435 532.353 162.435C533.495 162.435 534.332 162.853 534.977 163.69C535.622 164.527 535.945 165.687 535.945 167.169V167.317ZM534.367 167.143C534.367 166.105 534.149 165.286 533.704 164.684C533.26 164.082 532.649 163.777 531.882 163.777C530.932 163.777 530.217 164.204 529.737 165.05V169.453C530.208 170.29 530.932 170.717 531.899 170.717C532.658 170.717 533.251 170.421 533.704 169.819C534.158 169.218 534.376 168.328 534.376 167.151L534.367 167.143Z" fill="#4F92FF"/>
<path d="M103.37 145.365C101.966 144.964 100.946 144.467 100.309 143.883C99.673 143.299 99.3504 142.566 99.3504 141.703C99.3504 140.727 99.7427 139.916 100.519 139.279C101.295 138.643 102.315 138.32 103.561 138.32C104.416 138.32 105.174 138.486 105.837 138.817C106.5 139.149 107.023 139.602 107.389 140.177C107.755 140.753 107.938 141.389 107.938 142.078H106.299C106.299 141.328 106.064 140.735 105.584 140.308C105.105 139.881 104.433 139.663 103.57 139.663C102.768 139.663 102.132 139.837 101.687 140.195C101.234 140.552 101.007 141.041 101.007 141.677C101.007 142.183 101.225 142.61 101.652 142.959C102.079 143.307 102.812 143.63 103.84 143.918C104.869 144.205 105.68 144.528 106.256 144.877C106.84 145.225 107.267 145.635 107.546 146.097C107.825 146.559 107.964 147.109 107.964 147.736C107.964 148.739 107.572 149.55 106.787 150.151C106.003 150.753 104.956 151.058 103.649 151.058C102.794 151.058 102.001 150.893 101.268 150.57C100.527 150.247 99.9607 149.794 99.5596 149.227C99.1585 148.661 98.958 148.015 98.958 147.292H100.597C100.597 148.042 100.876 148.634 101.425 149.07C101.975 149.506 102.716 149.724 103.64 149.724C104.503 149.724 105.166 149.55 105.628 149.192C106.09 148.835 106.317 148.364 106.317 147.754C106.317 147.144 106.107 146.673 105.68 146.341C105.253 146.01 104.486 145.679 103.361 145.356L103.37 145.365Z" fill="#4F92FF"/>
<path d="M111.948 139.445V141.677H113.666V142.897H111.948V148.617C111.948 148.983 112.027 149.262 112.175 149.445C112.323 149.628 112.585 149.724 112.96 149.724C113.143 149.724 113.387 149.689 113.709 149.619V150.892C113.291 151.006 112.89 151.058 112.498 151.058C111.791 151.058 111.26 150.849 110.902 150.422C110.545 149.994 110.361 149.393 110.361 148.608V142.897H108.688V141.677H110.361V139.445H111.94H111.948Z" fill="#4F92FF"/>
<path d="M121.199 150.892C121.112 150.709 121.033 150.386 120.981 149.924C120.249 150.683 119.377 151.066 118.357 151.066C117.45 151.066 116.7 150.814 116.125 150.299C115.541 149.785 115.253 149.131 115.253 148.346C115.253 147.387 115.619 146.637 116.343 146.114C117.075 145.582 118.095 145.321 119.42 145.321H120.955V144.597C120.955 144.048 120.789 143.612 120.458 143.281C120.127 142.958 119.647 142.792 119.002 142.792C118.444 142.792 117.964 142.932 117.59 143.22C117.206 143.507 117.023 143.847 117.023 144.248H115.436C115.436 143.786 115.602 143.342 115.924 142.915C116.247 142.487 116.692 142.147 117.25 141.894C117.807 141.642 118.427 141.52 119.089 141.52C120.153 141.52 120.981 141.781 121.583 142.313C122.184 142.845 122.498 143.577 122.516 144.501V148.739C122.516 149.584 122.62 150.256 122.838 150.753V150.892H121.19H121.199ZM118.583 149.689C119.08 149.689 119.543 149.558 119.987 149.305C120.432 149.052 120.754 148.721 120.946 148.311V146.419H119.708C117.781 146.419 116.814 146.986 116.814 148.111C116.814 148.608 116.979 148.991 117.311 149.27C117.642 149.549 118.06 149.689 118.583 149.689Z" fill="#4F92FF"/>
<path d="M127.886 148.582L130.03 141.677H131.713L128.008 152.314C127.432 153.848 126.525 154.615 125.279 154.615L124.982 154.589L124.398 154.476V153.203L124.825 153.238C125.357 153.238 125.776 153.133 126.072 152.915C126.368 152.697 126.613 152.305 126.804 151.729L127.153 150.796L123.866 141.685H125.584L127.886 148.591V148.582Z" fill="#4F92FF"/>
<path d="M146.795 146.96C146.638 148.268 146.158 149.28 145.339 149.995C144.528 150.709 143.438 151.067 142.087 151.067C140.622 151.067 139.445 150.544 138.565 149.489C137.684 148.443 137.239 147.03 137.239 145.278V144.083C137.239 142.932 137.449 141.921 137.858 141.041C138.268 140.169 138.852 139.497 139.611 139.027C140.369 138.556 141.241 138.32 142.235 138.32C143.552 138.32 144.607 138.686 145.4 139.419C146.193 140.151 146.655 141.171 146.786 142.47H145.147C145.008 141.476 144.694 140.762 144.223 140.317C143.752 139.872 143.089 139.654 142.235 139.654C141.189 139.654 140.369 140.038 139.776 140.814C139.184 141.59 138.887 142.688 138.887 144.109V145.313C138.887 146.655 139.166 147.728 139.733 148.521C140.3 149.315 141.084 149.716 142.096 149.716C143.002 149.716 143.7 149.506 144.188 149.097C144.676 148.687 144.999 147.972 145.156 146.943H146.795V146.96Z" fill="#4F92FF"/>
<path d="M148.364 146.202C148.364 145.295 148.539 144.484 148.896 143.769C149.254 143.046 149.742 142.497 150.378 142.104C151.015 141.712 151.73 141.52 152.549 141.52C153.805 141.52 154.816 141.956 155.592 142.819C156.368 143.682 156.752 144.842 156.752 146.28V146.394C156.752 147.292 156.577 148.094 156.237 148.809C155.897 149.524 155.4 150.073 154.764 150.474C154.127 150.875 153.395 151.067 152.567 151.067C151.32 151.067 150.309 150.631 149.533 149.768C148.757 148.905 148.373 147.754 148.373 146.315V146.202H148.364ZM149.951 146.385C149.951 147.405 150.186 148.225 150.666 148.844C151.137 149.463 151.773 149.768 152.567 149.768C153.36 149.768 154.005 149.454 154.476 148.826C154.947 148.198 155.182 147.318 155.182 146.193C155.182 145.182 154.938 144.362 154.459 143.735C153.979 143.107 153.343 142.793 152.549 142.793C151.756 142.793 151.145 143.098 150.666 143.717C150.186 144.336 149.951 145.225 149.951 146.376V146.385Z" fill="#4F92FF"/>
<path d="M160.221 141.677L160.274 142.836C160.98 141.947 161.895 141.511 163.029 141.511C164.973 141.511 165.958 142.61 165.976 144.807V150.892H164.397V144.798C164.397 144.136 164.241 143.639 163.944 143.325C163.648 143.011 163.186 142.845 162.549 142.845C162.035 142.845 161.59 142.985 161.206 143.255C160.823 143.525 160.518 143.883 160.3 144.327V150.892H158.722V141.677H160.213H160.221Z" fill="#4F92FF"/>
<path d="M169.838 141.677L169.891 142.836C170.597 141.947 171.512 141.511 172.646 141.511C174.59 141.511 175.575 142.61 175.593 144.807V150.892H174.015V144.798C174.015 144.136 173.858 143.639 173.561 143.325C173.265 143.011 172.803 142.845 172.166 142.845C171.652 142.845 171.207 142.985 170.824 143.255C170.44 143.525 170.135 143.883 169.917 144.327V150.892H168.339V141.677H169.83H169.838Z" fill="#4F92FF"/>
<path d="M181.791 151.067C180.544 151.067 179.524 150.657 178.74 149.838C177.955 149.018 177.562 147.92 177.562 146.551V146.263C177.562 145.348 177.737 144.537 178.086 143.813C178.434 143.089 178.923 142.531 179.55 142.13C180.178 141.721 180.858 141.52 181.591 141.52C182.785 141.52 183.718 141.912 184.38 142.706C185.043 143.499 185.374 144.624 185.374 146.097V146.751H179.132C179.158 147.658 179.42 148.39 179.925 148.948C180.431 149.506 181.076 149.785 181.861 149.785C182.419 149.785 182.89 149.672 183.273 149.445C183.657 149.219 183.997 148.913 184.285 148.539L185.244 149.288C184.468 150.474 183.317 151.067 181.774 151.067H181.791ZM181.599 142.802C180.963 142.802 180.431 143.037 179.995 143.499C179.559 143.961 179.298 144.606 179.193 145.443H183.805V145.321C183.761 144.519 183.543 143.9 183.16 143.464C182.776 143.028 182.253 142.802 181.591 142.802H181.599Z" fill="#4F92FF"/>
<path d="M190.901 149.777C191.459 149.777 191.956 149.602 192.375 149.262C192.793 148.922 193.029 148.495 193.072 147.989H194.563C194.537 148.521 194.354 149.018 194.023 149.498C193.691 149.977 193.238 150.352 192.68 150.64C192.122 150.927 191.529 151.067 190.901 151.067C189.646 151.067 188.652 150.648 187.911 149.811C187.17 148.974 186.804 147.832 186.804 146.376V146.115C186.804 145.217 186.969 144.423 187.301 143.726C187.632 143.028 188.103 142.488 188.722 142.095C189.341 141.712 190.064 141.52 190.901 141.52C191.93 141.52 192.793 141.825 193.473 142.444C194.154 143.063 194.52 143.865 194.563 144.851H193.072C193.029 144.258 192.802 143.761 192.392 143.386C191.983 143.002 191.486 142.81 190.893 142.81C190.091 142.81 189.472 143.098 189.036 143.674C188.6 144.249 188.373 145.086 188.373 146.176V146.472C188.373 147.536 188.591 148.355 189.027 148.922C189.463 149.498 190.091 149.785 190.901 149.785V149.777Z" fill="#4F92FF"/>
<path d="M198.468 139.445V141.677H200.185V142.897H198.468V148.617C198.468 148.983 198.546 149.262 198.694 149.445C198.843 149.628 199.104 149.724 199.479 149.724C199.662 149.724 199.906 149.689 200.229 149.619V150.892C199.81 151.006 199.409 151.058 199.017 151.058C198.311 151.058 197.779 150.849 197.422 150.422C197.064 149.994 196.881 149.393 196.881 148.608V142.897H195.207V141.677H196.881V139.445H198.459H198.468Z" fill="#4F92FF"/>
<path d="M205.854 151.066C204.607 151.066 203.587 150.657 202.802 149.837C202.017 149.018 201.625 147.919 201.625 146.55V146.262C201.625 145.347 201.799 144.536 202.148 143.813C202.497 143.089 202.985 142.531 203.613 142.13C204.241 141.72 204.921 141.52 205.653 141.52C206.847 141.52 207.78 141.912 208.443 142.705C209.106 143.499 209.437 144.623 209.437 146.097V146.751H203.194C203.22 147.657 203.482 148.39 203.988 148.948C204.493 149.506 205.139 149.785 205.923 149.785C206.481 149.785 206.952 149.671 207.336 149.445C207.719 149.218 208.059 148.913 208.347 148.538L209.306 149.288C208.53 150.474 207.379 151.066 205.836 151.066H205.854ZM205.653 142.801C205.017 142.801 204.485 143.037 204.049 143.499C203.613 143.961 203.351 144.606 203.247 145.443H207.859V145.321C207.815 144.519 207.597 143.9 207.214 143.464C206.83 143.028 206.307 142.801 205.644 142.801H205.653Z" fill="#4F92FF"/>
<path d="M210.884 146.21C210.884 144.798 211.215 143.664 211.886 142.801C212.558 141.938 213.43 141.511 214.519 141.511C215.609 141.511 216.455 141.877 217.083 142.618V137.814H218.661V150.892H217.213L217.135 149.907C216.507 150.683 215.627 151.066 214.502 151.066C213.377 151.066 212.566 150.63 211.895 149.759C211.224 148.887 210.884 147.745 210.884 146.332V146.21ZM212.462 146.385C212.462 147.431 212.68 148.25 213.107 148.834C213.534 149.427 214.136 149.724 214.894 149.724C215.897 149.724 216.62 149.279 217.083 148.381V144.153C216.612 143.281 215.888 142.854 214.912 142.854C214.136 142.854 213.534 143.15 213.107 143.752C212.671 144.344 212.462 145.234 212.462 146.402V146.385Z" fill="#4F92FF"/>
<path d="M281.703 382.084V386.94H280.063V374.542H284.632C285.992 374.542 287.047 374.891 287.823 375.58C288.599 376.268 288.974 377.192 288.974 378.326C288.974 379.529 288.599 380.453 287.849 381.107C287.099 381.761 286.018 382.084 284.615 382.084H281.694H281.703ZM281.703 380.75H284.641C285.513 380.75 286.184 380.54 286.646 380.131C287.108 379.721 287.344 379.119 287.344 378.343C287.344 377.602 287.108 377.009 286.646 376.565C286.184 376.12 285.539 375.893 284.728 375.876H281.694V380.75H281.703Z" fill="#4F92FF"/>
<path d="M295.269 379.137C295.033 379.093 294.772 379.076 294.493 379.076C293.455 379.076 292.758 379.512 292.392 380.393V386.931H290.813V377.716H292.348L292.374 378.78C292.888 377.96 293.621 377.542 294.571 377.542C294.876 377.542 295.112 377.585 295.269 377.664V379.128V379.137Z" fill="#4F92FF"/>
<path d="M302.06 386.94C301.973 386.757 301.895 386.434 301.842 385.972C301.11 386.731 300.238 387.114 299.218 387.114C298.311 387.114 297.562 386.861 296.986 386.347C296.411 385.833 296.114 385.179 296.114 384.394C296.114 383.435 296.48 382.685 297.204 382.162C297.928 381.639 298.957 381.369 300.282 381.369H301.816V380.645C301.816 380.096 301.651 379.66 301.319 379.329C300.988 378.997 300.508 378.84 299.863 378.84C299.305 378.84 298.826 378.98 298.451 379.268C298.076 379.555 297.884 379.895 297.884 380.296H296.297C296.297 379.834 296.463 379.39 296.786 378.962C297.108 378.535 297.553 378.195 298.111 377.942C298.669 377.689 299.288 377.567 299.95 377.567C301.014 377.567 301.842 377.829 302.444 378.361C303.046 378.893 303.359 379.625 303.377 380.549V384.786C303.377 385.632 303.482 386.303 303.699 386.8V386.94H302.052H302.06ZM299.454 385.737C299.95 385.737 300.413 385.606 300.857 385.353C301.302 385.1 301.624 384.769 301.816 384.359V382.467H300.578C298.651 382.467 297.684 383.034 297.684 384.159C297.684 384.656 297.849 385.039 298.181 385.318C298.512 385.597 298.93 385.737 299.454 385.737Z" fill="#4F92FF"/>
<path d="M309.559 385.824C310.117 385.824 310.614 385.65 311.032 385.31C311.451 384.97 311.686 384.542 311.73 384.037H313.221C313.194 384.568 313.011 385.065 312.68 385.545C312.349 386.024 311.895 386.399 311.337 386.687C310.779 386.975 310.186 387.114 309.559 387.114C308.303 387.114 307.309 386.696 306.568 385.859C305.827 385.022 305.461 383.88 305.461 382.424V382.162C305.461 381.264 305.627 380.471 305.958 379.773C306.289 379.076 306.76 378.535 307.379 378.143C307.998 377.759 308.722 377.567 309.559 377.567C310.596 377.567 311.451 377.873 312.131 378.492C312.819 379.111 313.177 379.913 313.221 380.898H311.73C311.686 380.305 311.459 379.808 311.05 379.433C310.649 379.05 310.143 378.858 309.55 378.858C308.748 378.858 308.129 379.145 307.693 379.721C307.257 380.296 307.03 381.133 307.03 382.223V382.52C307.03 383.583 307.248 384.403 307.684 384.969C308.12 385.545 308.748 385.833 309.559 385.833V385.824Z" fill="#4F92FF"/>
<path d="M317.125 375.492V377.724H318.843V378.945H317.125V384.664C317.125 385.03 317.203 385.309 317.352 385.492C317.5 385.676 317.77 385.771 318.136 385.771C318.319 385.771 318.572 385.737 318.886 385.667V386.94C318.476 387.053 318.067 387.105 317.674 387.105C316.968 387.105 316.436 386.896 316.079 386.469C315.721 386.042 315.538 385.44 315.538 384.655V378.945H313.864V377.724H315.538V375.492H317.116H317.125Z" fill="#4F92FF"/>
<path d="M320.69 375.283C320.69 375.03 320.769 374.812 320.926 374.638C321.083 374.464 321.309 374.376 321.623 374.376C321.937 374.376 322.164 374.464 322.321 374.638C322.478 374.812 322.556 375.03 322.556 375.283C322.556 375.536 322.478 375.754 322.321 375.92C322.164 376.094 321.928 376.173 321.623 376.173C321.318 376.173 321.083 376.085 320.926 375.92C320.769 375.745 320.69 375.536 320.69 375.283ZM322.391 386.94H320.813V377.724H322.391V386.94Z" fill="#4F92FF"/>
<path d="M328.607 385.824C329.165 385.824 329.662 385.65 330.08 385.31C330.499 384.97 330.734 384.542 330.777 384.037H332.268C332.242 384.568 332.059 385.065 331.728 385.545C331.397 386.024 330.943 386.399 330.385 386.687C329.827 386.975 329.234 387.114 328.607 387.114C327.351 387.114 326.357 386.696 325.616 385.859C324.875 385.022 324.509 383.88 324.509 382.424V382.162C324.509 381.264 324.674 380.471 325.006 379.773C325.337 379.076 325.808 378.535 326.427 378.143C327.046 377.759 327.77 377.567 328.607 377.567C329.644 377.567 330.499 377.873 331.179 378.492C331.867 379.111 332.225 379.913 332.268 380.898H330.777C330.734 380.305 330.507 379.808 330.097 379.433C329.696 379.05 329.191 378.858 328.598 378.858C327.796 378.858 327.177 379.145 326.741 379.721C326.305 380.296 326.078 381.133 326.078 382.223V382.52C326.078 383.583 326.296 384.403 326.732 384.969C327.168 385.545 327.796 385.833 328.607 385.833V385.824Z" fill="#4F92FF"/>
<path d="M337.866 387.114C336.619 387.114 335.599 386.704 334.815 385.885C334.03 385.065 333.638 383.967 333.638 382.598V382.31C333.638 381.395 333.812 380.584 334.161 379.86C334.51 379.137 334.998 378.579 335.626 378.178C336.253 377.768 336.933 377.567 337.666 377.567C338.86 377.567 339.793 377.96 340.456 378.753C341.118 379.547 341.45 380.671 341.45 382.145V382.799H335.207C335.233 383.705 335.495 384.438 336 384.996C336.506 385.554 337.151 385.833 337.936 385.833C338.494 385.833 338.965 385.719 339.348 385.493C339.732 385.266 340.072 384.961 340.36 384.586L341.319 385.336C340.552 386.521 339.392 387.114 337.849 387.114H337.866ZM337.666 378.849C337.029 378.849 336.497 379.084 336.061 379.546C335.634 380.009 335.364 380.654 335.259 381.491H339.871V381.369C339.828 380.567 339.61 379.948 339.226 379.512C338.843 379.076 338.32 378.849 337.657 378.849H337.666Z" fill="#4F92FF"/>
<path d="M353.262 374.76L357.316 384.874L361.37 374.76H363.489V387.158H361.85V382.328L362.007 377.114L357.935 387.149H356.68L352.617 377.14L352.783 382.328V387.158H351.144V374.76H353.253H353.262Z" fill="#4F92FF"/>
<path d="M366.139 375.501C366.139 375.249 366.217 375.031 366.374 374.856C366.531 374.682 366.758 374.595 367.072 374.595C367.385 374.595 367.612 374.682 367.769 374.856C367.926 375.031 368.004 375.249 368.004 375.501C368.004 375.754 367.926 375.972 367.769 376.138C367.612 376.304 367.377 376.391 367.072 376.391C366.766 376.391 366.531 376.304 366.374 376.138C366.217 375.972 366.139 375.754 366.139 375.501ZM367.839 387.158H366.261V377.943H367.839V387.158Z" fill="#4F92FF"/>
<path d="M371.849 377.943L371.902 379.102C372.608 378.213 373.523 377.777 374.657 377.777C376.601 377.777 377.586 378.875 377.604 381.072V387.158H376.025V381.064C376.025 380.401 375.868 379.904 375.572 379.59C375.276 379.276 374.814 379.111 374.177 379.111C373.663 379.111 373.218 379.25 372.834 379.521C372.451 379.791 372.146 380.148 371.928 380.593V387.158H370.35V377.943H371.841H371.849Z" fill="#4F92FF"/>
<path d="M379.6 382.476C379.6 381.063 379.931 379.93 380.602 379.067C381.274 378.204 382.145 377.777 383.235 377.777C384.325 377.777 385.171 378.143 385.798 378.884V374.08H387.376V387.158H385.929L385.851 386.172C385.223 386.948 384.342 387.332 383.218 387.332C382.093 387.332 381.282 386.896 380.611 386.024C379.94 385.152 379.6 384.01 379.6 382.598V382.476ZM381.169 382.65C381.169 383.696 381.387 384.516 381.814 385.1C382.241 385.684 382.843 385.989 383.601 385.989C384.604 385.989 385.328 385.545 385.79 384.647V380.418C385.319 379.546 384.595 379.119 383.619 379.119C382.843 379.119 382.241 379.416 381.814 380.017C381.387 380.619 381.169 381.499 381.169 382.668V382.65Z" fill="#4F92FF"/>
<path d="M390.585 387.158V379.163H389.129V377.942H390.585V377.001C390.585 376.016 390.846 375.248 391.378 374.708C391.91 374.167 392.651 373.897 393.619 373.897C393.985 373.897 394.342 373.941 394.7 374.045L394.613 375.318C394.343 375.266 394.063 375.24 393.758 375.24C393.244 375.24 392.852 375.388 392.573 375.684C392.294 375.981 392.154 376.408 392.154 376.966V377.942H394.125V379.163H392.154V387.158H390.576H390.585Z" fill="#4F92FF"/>
<path d="M401.552 386.242C400.942 386.966 400.044 387.324 398.85 387.324C397.864 387.324 397.123 387.036 396.609 386.469C396.095 385.902 395.833 385.057 395.833 383.932V377.934H397.411V383.888C397.411 385.283 397.978 385.981 399.111 385.981C400.314 385.981 401.117 385.536 401.509 384.638V377.934H403.087V387.149H401.587L401.552 386.242Z" fill="#4F92FF"/>
<path d="M407.193 387.158H405.615V374.08H407.193V387.158Z" fill="#4F92FF"/>
<path d="M411.204 377.943L411.256 379.102C411.962 378.213 412.878 377.777 414.011 377.777C415.955 377.777 416.941 378.875 416.958 381.072V387.158H415.38V381.064C415.38 380.401 415.223 379.904 414.927 379.59C414.63 379.276 414.168 379.111 413.532 379.111C413.017 379.111 412.573 379.25 412.189 379.521C411.805 379.791 411.5 380.148 411.282 380.593V387.158H409.704V377.943H411.195H411.204Z" fill="#4F92FF"/>
<path d="M423.157 387.332C421.91 387.332 420.89 386.922 420.106 386.103C419.321 385.283 418.929 384.185 418.929 382.816V382.528C418.929 381.613 419.103 380.802 419.452 380.078C419.801 379.355 420.289 378.797 420.917 378.395C421.544 377.986 422.224 377.785 422.957 377.785C424.151 377.785 425.084 378.177 425.747 378.971C426.409 379.764 426.741 380.889 426.741 382.362V383.016H420.498C420.524 383.923 420.786 384.655 421.291 385.213C421.797 385.771 422.442 386.05 423.227 386.05C423.785 386.05 424.256 385.937 424.639 385.71C425.023 385.484 425.363 385.179 425.651 384.804L426.61 385.553C425.843 386.739 424.683 387.332 423.14 387.332H423.157ZM422.957 379.067C422.32 379.067 421.788 379.302 421.352 379.764C420.925 380.226 420.655 380.872 420.55 381.709H425.163V381.586C425.119 380.784 424.901 380.165 424.517 379.729C424.134 379.293 423.611 379.067 422.948 379.067H422.957Z" fill="#4F92FF"/>
<path d="M433.932 384.717C433.932 384.29 433.775 383.958 433.453 383.723C433.13 383.488 432.572 383.287 431.779 383.113C430.985 382.938 430.349 382.738 429.878 382.502C429.407 382.267 429.067 381.979 428.841 381.648C428.614 381.317 428.5 380.924 428.5 380.471C428.5 379.712 428.823 379.076 429.46 378.553C430.096 378.03 430.916 377.768 431.909 377.768C432.956 377.768 433.801 378.038 434.455 378.579C435.109 379.119 435.432 379.808 435.432 380.645H433.845C433.845 380.209 433.662 379.843 433.296 379.529C432.93 379.215 432.467 379.058 431.909 379.058C431.351 379.058 430.889 379.18 430.567 379.433C430.244 379.686 430.079 380.009 430.079 380.41C430.079 380.793 430.227 381.072 430.532 381.273C430.837 381.465 431.378 381.648 432.162 381.822C432.947 381.997 433.583 382.206 434.072 382.45C434.56 382.694 434.926 382.991 435.162 383.331C435.397 383.671 435.519 384.089 435.519 384.586C435.519 385.406 435.188 386.068 434.534 386.565C433.88 387.062 433.025 387.306 431.97 387.306C431.229 387.306 430.584 387.175 430.009 386.914C429.442 386.652 428.997 386.286 428.675 385.824C428.352 385.353 428.195 384.848 428.195 384.307H429.773C429.8 384.839 430.018 385.257 430.41 385.563C430.802 385.868 431.325 386.025 431.97 386.025C432.563 386.025 433.043 385.903 433.409 385.658C433.767 385.414 433.95 385.092 433.95 384.691L433.932 384.717Z" fill="#4F92FF"/>
<path d="M442.921 384.717C442.921 384.29 442.765 383.958 442.442 383.723C442.119 383.488 441.561 383.287 440.768 383.113C439.975 382.938 439.338 382.738 438.867 382.502C438.397 382.267 438.056 381.979 437.83 381.648C437.603 381.317 437.49 380.924 437.49 380.471C437.49 379.712 437.812 379.076 438.449 378.553C439.085 378.03 439.905 377.768 440.899 377.768C441.945 377.768 442.791 378.038 443.445 378.579C444.098 379.119 444.421 379.808 444.421 380.645H442.834C442.834 380.209 442.651 379.843 442.285 379.529C441.919 379.215 441.457 379.058 440.899 379.058C440.341 379.058 439.879 379.18 439.556 379.433C439.233 379.686 439.068 380.009 439.068 380.41C439.068 380.793 439.216 381.072 439.521 381.273C439.826 381.465 440.367 381.648 441.152 381.822C441.936 381.997 442.573 382.206 443.061 382.45C443.549 382.694 443.915 382.991 444.151 383.331C444.386 383.671 444.508 384.089 444.508 384.586C444.508 385.406 444.177 386.068 443.523 386.565C442.869 387.062 442.015 387.306 440.96 387.306C440.219 387.306 439.573 387.175 438.998 386.914C438.431 386.652 437.987 386.286 437.664 385.824C437.342 385.353 437.185 384.848 437.185 384.307H438.763C438.789 384.839 439.007 385.257 439.399 385.563C439.791 385.868 440.315 386.025 440.96 386.025C441.553 386.025 442.032 385.903 442.398 385.658C442.756 385.414 442.939 385.092 442.939 384.691L442.921 384.717Z" fill="#4F92FF"/>
<path d="M309.139 409.181C309.052 408.998 308.974 408.675 308.921 408.213C308.189 408.971 307.317 409.355 306.297 409.355C305.39 409.355 304.641 409.102 304.065 408.588C303.49 408.073 303.193 407.419 303.193 406.635C303.193 405.676 303.56 404.926 304.283 404.403C305.007 403.88 306.036 403.609 307.361 403.609H308.895V402.886C308.895 402.336 308.73 401.901 308.398 401.569C308.067 401.238 307.588 401.081 306.942 401.081C306.384 401.081 305.905 401.22 305.53 401.508C305.155 401.796 304.963 402.136 304.963 402.537H303.376C303.376 402.075 303.542 401.63 303.865 401.203C304.187 400.776 304.632 400.436 305.19 400.183C305.748 399.93 306.367 399.808 307.03 399.808C308.093 399.808 308.921 400.07 309.523 400.601C310.125 401.133 310.439 401.866 310.456 402.79V407.027C310.456 407.873 310.561 408.544 310.779 409.041V409.181H309.131H309.139ZM306.524 407.977C307.021 407.977 307.483 407.847 307.928 407.594C308.372 407.341 308.695 407.01 308.887 406.6V404.708H307.649C305.722 404.708 304.754 405.275 304.754 406.399C304.754 406.896 304.92 407.28 305.251 407.559C305.582 407.838 306.001 407.977 306.524 407.977Z" fill="#4F92FF"/>
<path d="M314.431 399.964L314.484 401.124C315.19 400.235 316.105 399.799 317.239 399.799C319.183 399.799 320.168 400.897 320.186 403.094V409.18H318.607V403.086C318.607 402.423 318.451 401.926 318.154 401.612C317.858 401.298 317.396 401.133 316.759 401.133C316.245 401.133 315.8 401.272 315.416 401.543C315.033 401.813 314.728 402.17 314.51 402.615V409.18H312.932V399.964H314.422H314.431Z" fill="#4F92FF"/>
<path d="M322.173 404.498C322.173 403.086 322.504 401.953 323.175 401.089C323.847 400.226 324.719 399.799 325.808 399.799C326.898 399.799 327.744 400.165 328.372 400.906V396.103H329.95V409.18H328.502L328.424 408.195C327.796 408.971 326.916 409.354 325.791 409.354C324.666 409.354 323.856 408.918 323.184 408.047C322.513 407.175 322.173 406.033 322.173 404.62V404.498ZM323.751 404.673C323.751 405.719 323.969 406.538 324.396 407.122C324.823 407.707 325.425 408.012 326.183 408.012C327.186 408.012 327.91 407.567 328.372 406.669V402.441C327.901 401.569 327.177 401.142 326.201 401.142C325.425 401.142 324.823 401.438 324.396 402.04C323.969 402.641 323.751 403.522 323.751 404.69V404.673Z" fill="#4F92FF"/>
<path d="M339.069 396.783L343.123 406.896L347.177 396.783H349.296V409.181H347.657V404.35L347.814 399.137L343.742 409.172H342.487L338.424 399.163L338.589 404.35V409.181H336.95V396.783H339.06H339.069Z" fill="#4F92FF"/>
<path d="M355.756 409.346C354.509 409.346 353.489 408.936 352.704 408.117C351.92 407.297 351.527 406.199 351.527 404.83V404.542C351.527 403.627 351.702 402.816 352.05 402.092C352.399 401.369 352.887 400.811 353.515 400.41C354.143 400.009 354.823 399.799 355.555 399.799C356.75 399.799 357.683 400.192 358.345 400.985C359.008 401.778 359.339 402.903 359.339 404.377V405.03H353.097C353.123 405.937 353.384 406.67 353.89 407.228C354.396 407.786 355.041 408.065 355.826 408.065C356.384 408.065 356.854 407.951 357.238 407.725C357.622 407.498 357.962 407.193 358.249 406.818L359.209 407.568C358.441 408.753 357.282 409.346 355.738 409.346H355.756ZM355.555 401.09C354.919 401.09 354.387 401.325 353.951 401.787C353.515 402.249 353.254 402.894 353.149 403.731H357.761V403.609C357.718 402.807 357.5 402.188 357.116 401.752C356.732 401.316 356.209 401.09 355.547 401.09H355.555Z" fill="#4F92FF"/>
<path d="M360.787 404.498C360.787 403.086 361.118 401.953 361.79 401.089C362.461 400.226 363.333 399.799 364.423 399.799C365.512 399.799 366.358 400.165 366.986 400.906V396.103H368.564V409.18H367.117L367.038 408.195C366.41 408.971 365.53 409.354 364.405 409.354C363.281 409.354 362.47 408.918 361.798 408.047C361.127 407.175 360.787 406.033 360.787 404.62V404.498ZM362.365 404.673C362.365 405.719 362.583 406.538 363.01 407.122C363.446 407.715 364.039 408.012 364.798 408.012C365.8 408.012 366.524 407.567 366.986 406.669V402.441C366.515 401.569 365.791 401.142 364.815 401.142C364.048 401.142 363.437 401.438 363.01 402.04C362.583 402.633 362.365 403.522 362.365 404.69V404.673Z" fill="#4F92FF"/>
<path d="M371.013 397.523C371.013 397.271 371.091 397.053 371.248 396.878C371.405 396.704 371.632 396.617 371.946 396.617C372.259 396.617 372.486 396.704 372.643 396.878C372.8 397.053 372.878 397.271 372.878 397.523C372.878 397.776 372.8 397.994 372.643 398.16C372.486 398.334 372.251 398.413 371.946 398.413C371.64 398.413 371.405 398.326 371.248 398.16C371.091 397.986 371.013 397.776 371.013 397.523ZM372.713 409.18H371.135V399.965H372.713V409.18Z" fill="#4F92FF"/>
<path d="M377.369 397.733V399.965H379.087V401.185H377.369V406.905C377.369 407.271 377.448 407.55 377.596 407.733C377.744 407.916 378.014 408.012 378.381 408.012C378.564 408.012 378.816 407.977 379.13 407.908V409.18C378.721 409.294 378.311 409.346 377.918 409.346C377.212 409.346 376.68 409.137 376.323 408.71C375.965 408.282 375.782 407.681 375.782 406.896V401.185H374.108V399.965H375.782V397.733H377.36H377.369Z" fill="#4F92FF"/>
<path d="M386.62 409.181C386.533 408.998 386.454 408.675 386.402 408.213C385.67 408.971 384.798 409.355 383.778 409.355C382.871 409.355 382.121 409.102 381.546 408.588C380.962 408.073 380.674 407.419 380.674 406.635C380.674 405.676 381.04 404.926 381.764 404.403C382.496 403.871 383.516 403.609 384.841 403.609H386.376V402.886C386.376 402.336 386.21 401.901 385.879 401.569C385.548 401.247 385.068 401.081 384.423 401.081C383.865 401.081 383.394 401.22 383.01 401.508C382.627 401.796 382.444 402.136 382.444 402.537H380.857C380.857 402.075 381.023 401.63 381.345 401.203C381.676 400.776 382.112 400.436 382.67 400.183C383.228 399.93 383.847 399.808 384.51 399.808C385.574 399.808 386.402 400.07 387.004 400.601C387.605 401.133 387.919 401.866 387.936 402.79V407.027C387.936 407.873 388.041 408.544 388.259 409.041V409.181H386.611H386.62ZM384.004 407.977C384.501 407.977 384.963 407.847 385.408 407.594C385.853 407.341 386.175 407.01 386.367 406.6V404.708H385.129C383.202 404.708 382.234 405.275 382.234 406.399C382.234 406.896 382.4 407.28 382.731 407.559C383.063 407.838 383.481 407.977 384.004 407.977Z" fill="#4F92FF"/>
<path d="M392.548 397.733V399.965H394.265V401.185H392.548V406.905C392.548 407.271 392.626 407.55 392.775 407.733C392.923 407.916 393.193 408.012 393.559 408.012C393.742 408.012 393.995 407.977 394.309 407.908V409.18C393.899 409.294 393.489 409.346 393.097 409.346C392.391 409.346 391.859 409.137 391.502 408.71C391.144 408.282 390.961 407.681 390.961 406.896V401.185H389.287V399.965H390.961V397.733H392.539H392.548Z" fill="#4F92FF"/>
<path d="M396.122 397.523C396.122 397.271 396.201 397.053 396.357 396.878C396.514 396.704 396.741 396.617 397.055 396.617C397.369 396.617 397.596 396.704 397.752 396.878C397.909 397.053 397.988 397.271 397.988 397.523C397.988 397.776 397.909 397.994 397.752 398.16C397.596 398.334 397.36 398.413 397.055 398.413C396.75 398.413 396.514 398.326 396.357 398.16C396.201 397.986 396.122 397.776 396.122 397.523ZM397.822 409.18H396.244V399.965H397.822V409.18Z" fill="#4F92FF"/>
<path d="M399.923 404.49C399.923 403.583 400.097 402.772 400.455 402.057C400.812 401.334 401.3 400.785 401.937 400.392C402.573 400 403.288 399.808 404.108 399.808C405.363 399.808 406.375 400.244 407.151 401.107C407.927 401.97 408.31 403.13 408.31 404.568V404.682C408.31 405.58 408.136 406.382 407.796 407.097C407.456 407.812 406.959 408.361 406.322 408.762C405.686 409.163 404.954 409.355 404.125 409.355C402.878 409.355 401.867 408.919 401.091 408.056C400.315 407.193 399.932 406.042 399.932 404.603V404.49H399.923ZM401.51 404.673C401.51 405.693 401.745 406.513 402.225 407.132C402.695 407.751 403.332 408.056 404.125 408.056C404.919 408.056 405.564 407.742 406.035 407.114C406.505 406.487 406.741 405.606 406.741 404.481C406.741 403.47 406.505 402.65 406.017 402.023C405.538 401.395 404.901 401.081 404.108 401.081C403.314 401.081 402.704 401.386 402.225 402.005C401.745 402.624 401.51 403.513 401.51 404.664V404.673Z" fill="#4F92FF"/>
<path d="M411.78 399.964L411.832 401.124C412.538 400.235 413.454 399.799 414.587 399.799C416.532 399.799 417.517 400.897 417.534 403.094V409.18H415.956V403.086C415.956 402.423 415.799 401.926 415.503 401.612C415.206 401.298 414.744 401.133 414.108 401.133C413.593 401.133 413.149 401.272 412.765 401.543C412.381 401.813 412.076 402.17 411.858 402.615V409.18H410.28V399.964H411.771H411.78Z" fill="#4F92FF"/>
<path d="M255.11 169.807C261.279 193.467 292.993 226.074 337.414 251.719C394.804 284.855 451.663 293.824 464.408 271.748C477.154 249.672 440.955 204.921 383.566 171.784C340.614 146.985 297.955 135.724 273.871 140.878M447.109 140.878C423.026 135.724 380.366 146.985 337.414 171.784C280.025 204.921 243.826 249.672 256.572 271.748C269.317 293.824 326.176 284.855 383.566 251.719C427.987 226.074 459.701 193.467 465.87 169.807M343.868 323.723C326.592 306.378 314.338 262.78 314.338 211.751C314.338 145.477 334.999 91.7568 360.49 91.7568C385.981 91.7568 406.642 145.477 406.642 211.751C406.642 262.787 394.388 306.378 377.112 323.723" stroke="#4F92FF" stroke-width="1.74366" stroke-linecap="round" stroke-linejoin="round" stroke-dasharray="4.36 6.1"/>
<path d="M253.909 145.155V155.617C253.909 156.097 253.516 156.489 253.037 156.489H241.703C241.223 156.489 240.831 156.097 240.831 155.617V144.284C240.831 143.804 241.223 143.412 241.703 143.412H245.19M256.524 139.053H251.729C249.113 139.053 248.242 141.485 248.242 143.412C248.303 144.685 248.765 145.905 249.549 146.899V144.719C249.549 143.848 249.985 143.412 251.729 143.412H256.524V146.027L260.883 141.232L256.524 136.437V139.053Z" stroke="white" stroke-width="1.74366" stroke-linecap="round" stroke-linejoin="round"/>
<path d="M477.096 136.873L475.352 138.617L476.224 139.924L474.48 141.232M463.146 136.873L464.89 138.617L464.018 139.924L465.762 141.232M470.121 136.437L469.249 137.745L470.121 138.617M466.93 143.49C468.7 145.347 471.446 145.896 473.792 144.868M470.121 152.13V154.31M466.416 145.373C466.416 147.422 468.072 149.079 470.121 149.079C472.17 149.079 473.826 147.422 473.826 145.373C473.826 143.324 472.17 141.668 470.121 141.668C468.072 141.668 466.416 143.324 466.416 145.373ZM464.018 156.489C464.018 153.115 466.747 150.386 470.121 150.386C473.495 150.386 476.224 153.115 476.224 156.489H464.018Z" stroke="white" stroke-width="1.74366" stroke-linecap="round" stroke-linejoin="round"/>
<path d="M354.648 232.339V227.108H352.713C349.827 227.108 347.482 224.762 347.482 221.877V216.646H342.791C342.512 216.646 342.242 216.506 342.076 216.28C341.91 216.062 341.867 215.774 341.954 215.512C345.563 204.318 348.074 192.234 362.059 192.234C369.417 192.234 375.938 196.951 378.222 203.943C380.507 210.935 378.031 218.607 372.085 222.94V232.339M357.787 208.555C357.333 208.712 356.862 208.799 356.392 208.799C353.985 208.703 352.111 206.672 352.207 204.266C352.303 201.859 354.334 199.985 356.74 200.081C357.403 198.573 358.876 197.57 360.524 197.5C362.172 197.431 363.724 198.302 364.517 199.75C365.232 199.401 366.008 199.209 366.801 199.209C369.469 199.192 371.718 201.179 372.032 203.83C373.741 205.103 374.726 207.108 374.7 209.235C374.813 212.722 372.085 215.652 368.597 215.774C365.938 215.704 363.619 213.934 362.861 211.38C360.751 211.58 358.728 210.456 357.787 208.555ZM357.787 208.555L358.292 207.056C358.685 205.87 359.504 204.867 360.594 204.248L361.623 203.568M371.352 201.825C367.673 202.749 367.133 204.562 366.854 205.312M371.283 215.111C370.943 213.298 370.027 211.641 368.667 210.386" stroke="white" stroke-width="1.74366" stroke-linecap="round" stroke-linejoin="round"/>
<path d="M366.993 346.678C367.464 346.286 367.595 345.615 367.316 345.074C367.037 344.534 366.409 344.255 365.816 344.412L360.489 345.868M355.485 349.015C355.72 349.381 356.13 349.599 356.566 349.599C356.802 349.599 356.566 349.651 360.489 348.579M356.444 339.05C355.869 340.279 357.316 340.497 358.249 340.454C358.972 340.419 359.583 340.977 359.618 341.692C359.618 341.744 359.713 343.078 358.022 343.078C356.714 343.13 355.433 342.729 354.387 341.944C353.837 341.456 353.523 340.75 353.515 340.018C353.497 339.05 353.933 338.134 354.7 337.542C355.625 336.879 356.741 336.53 357.874 336.522H363.105C364.238 336.522 365.354 336.879 366.278 337.542C367.046 338.134 367.482 339.05 367.464 340.018C367.464 340.75 367.168 341.447 366.636 341.944C365.581 342.738 364.273 343.13 362.957 343.06C361.265 343.06 361.361 341.744 361.361 341.692C361.396 340.968 362.015 340.41 362.739 340.445C363.672 340.488 365.11 340.27 364.535 339.041M357.874 332.162C357.874 333.61 359.042 334.778 360.489 334.778C361.937 334.778 363.105 333.61 363.105 332.162C363.105 330.715 361.937 329.547 360.489 329.547C359.042 329.547 357.874 330.715 357.874 332.162ZM364.413 349.599C364.16 349.599 364.857 349.765 354.482 346.94C353.785 346.748 353.367 346.033 353.558 345.336C353.75 344.638 354.465 344.22 355.163 344.412L364.753 347.027C365.389 347.193 365.799 347.812 365.712 348.466C365.624 349.12 365.067 349.608 364.413 349.599Z" stroke="white" stroke-width="1.74366" stroke-linecap="round" stroke-linejoin="round"/>
</g>
</g>
<defs>
<clipPath id="clip0_23_15592">
<rect width="710.098" height="437.004" fill="white" transform="translate(0.209961)"/>
</clipPath>
<clipPath id="clip1_23_15592">
<rect width="1032.25" height="594.588" fill="white" transform="translate(-160.863 -66.6992)"/>
</clipPath>
</defs>
</svg>
